<svg width="401" height="101" viewBox="0 0 401 101" fill="none" xmlns="http://www.w3.org/2000/svg">
<path fill-rule="evenodd" clip-rule="evenodd" d="M0.0837402 69.3438H24.0735V33.6242C24.0735 32.414 23.7103 32.0482 22.5088 32.0482H0.0837402V69.3438Z" fill="white"/>
<path fill-rule="evenodd" clip-rule="evenodd" d="M296.303 49.3829H290.566V35.2H296.303C299.83 35.2 302.039 38.3809 302.039 42.0288C302.039 45.6199 299.743 49.3829 296.303 49.3829ZM281.7 35.2H284.308V66.1919H281.7V68.8184H293.174V66.1919H290.566V52.0094H294.738C296.018 57.5423 301.023 64.1527 304.125 68.8187H312.469V66.1922C308.988 66.1922 308.152 64.6674 305.062 59.9958C303.325 57.369 301.786 54.9015 300.996 51.4843C304.776 51.1675 308.819 46.5265 308.819 42.5545C308.819 37.1858 304.24 32.5741 298.91 32.5741H281.7V35.2Z" fill="white"/>
<path fill-rule="evenodd" clip-rule="evenodd" d="M40.2403 66.1919H36.59V35.2C43.468 35.2 49.6278 35.1246 49.6278 47.8068C49.6278 55.8677 50.1742 66.1919 40.2403 66.1919ZM27.7244 35.2H30.3317V66.1919H27.7244V68.8183C37.7435 68.8183 49.7924 70.8233 53.6384 63.4028C58.569 53.8893 57.6013 32.5738 44.4126 32.5738H27.7244V35.2Z" fill="white"/>
<path fill-rule="evenodd" clip-rule="evenodd" d="M227.463 50.9586C227.463 28.5547 242.587 30.2506 242.587 48.8572C242.587 74.5066 230.636 66.7724 228.939 61.5529C228.148 59.1167 227.463 54.3566 227.463 50.9586ZM221.205 46.7564C221.205 53.3614 220.517 60.6364 225.23 65.8148C230.069 71.1319 249.367 74.4388 249.367 50.9586C249.367 40.0874 246.474 33.5766 236.98 31.9049C227.781 30.2852 221.205 37.5966 221.205 46.7564Z" fill="white"/>
<path fill-rule="evenodd" clip-rule="evenodd" d="M314.034 35.2H316.641V66.1919H314.034V68.8183H322.379V66.1919H319.771V40.9781L323.631 47.5957C325.189 50.1736 334.867 66.4417 335.416 68.8183H339.588V35.2H342.195V32.5738H333.851V35.2H336.459V56.2116C334.68 54.8992 324.608 35.9277 322.379 32.5738H314.034V35.2Z" fill="white"/>
<path fill-rule="evenodd" clip-rule="evenodd" d="M70.4875 49.908C70.4875 58.4254 72.1194 66.7094 79.852 68.8418C90.6724 71.8254 97.6071 65.1882 97.6071 62.5148V55.161H99.693C99.693 51.1196 100.651 52.0091 88.7414 52.0091C86.8876 52.0091 87.1766 53.0328 87.1766 55.161H90.8274V64.6162C86.204 67.7348 81.98 68.0106 79.1603 62.1844C76.5816 56.8552 74.5573 34.6747 86.1336 34.6747C88.3062 34.6747 90.3989 35.4266 91.4649 36.6588C92.828 38.2348 93.3891 39.955 93.4352 42.0288H96.5641C96.5641 38.8331 96.0423 38.1969 96.0423 35.2001C92.4017 33.2596 92.8903 32.8437 87.7519 31.9818C84.7732 31.4824 80.8402 31.9402 78.0192 33.3305C72.9336 35.8377 70.4875 42.4506 70.4875 49.908Z" fill="white"/>
<path fill-rule="evenodd" clip-rule="evenodd" d="M249.888 35.2H252.495V57.7874C252.495 62.9644 256.464 69.3438 262.926 69.3438C267.853 69.3438 272.627 69.1316 275.097 63.2176C277.761 56.8385 277.007 43.1253 277.007 35.2H279.093V32.5738H270.749V35.2H273.356V53.5851C273.356 70.2566 262.741 67.593 260.306 63.5781C257.848 59.5253 258.754 41.2358 258.754 35.2H261.361V32.5738H249.888V35.2Z" fill="white"/>
<path fill-rule="evenodd" clip-rule="evenodd" d="M150.279 43.6045L153.93 54.1101H147.15C147.975 50.5421 149.389 47.4565 150.279 43.6045ZM138.806 66.1919H137.242V68.8183H145.064V66.1919H143.5L146.107 56.7367H154.973C155.175 59.1859 156.97 63.5516 157.58 66.1919H156.016V68.8183H166.968V66.1919H164.36C163.082 60.666 160.583 55.2852 159.044 49.4847C158.049 45.7324 153.997 35.6018 153.93 32.5738H150.279C150.068 35.1305 148.404 38.7013 147.773 41.0802L141.089 62.7136C140.525 64.4782 140.591 66.1919 138.806 66.1919Z" fill="white"/>
<path fill-rule="evenodd" clip-rule="evenodd" d="M355.755 43.6045C356.027 44.0376 355.984 43.8504 356.266 44.6657C356.271 44.6791 356.576 45.7577 356.615 45.8897L359.405 54.1099H352.626C353.451 50.5419 354.865 47.4565 355.755 43.6045ZM344.282 66.1919H342.717V68.8183H350.54V66.1919H348.976L351.583 56.7367H360.449C360.595 58.5114 361.11 59.5528 361.593 61.3627C362.006 62.91 362.655 64.4541 363.057 66.1919H361.492V68.8183H372.444V66.1919H369.836C368.558 60.666 366.059 55.2852 364.52 49.4847C363.525 45.7324 359.473 35.6018 359.405 32.5738H355.755C355.544 35.1305 353.88 38.7013 353.249 41.0802L346.565 62.7136C346.001 64.4782 346.067 66.1919 344.282 66.1919Z" fill="white"/>
<path fill-rule="evenodd" clip-rule="evenodd" d="M112.731 39.4023H115.86C115.914 36.9548 116.473 36.6309 117.424 35.2H123.682V66.1919H121.075V68.8184H132.548V66.1919H129.94V35.2H136.199C137.15 36.6309 137.709 36.9548 137.764 39.4023H140.893C140.893 37.1427 140.625 37.2741 140.442 35.6542C140.032 32.0358 142.181 32.5738 130.984 32.5738C125.247 32.5738 119.51 32.5738 113.774 32.5738C113.342 34.4434 112.731 37.1647 112.731 39.4023Z" fill="white"/>
<path fill-rule="evenodd" clip-rule="evenodd" d="M207.645 35.2H210.253C210.253 42.2176 211.204 68.7545 209.3 73.6372C208.619 75.3852 208.152 75.9989 206.081 76.1725C206.149 79.2551 206.619 79.3995 209.089 78.734C214.773 77.2033 217.033 72.9183 217.033 66.1922V35.2003H219.64V32.5741H207.645V35.2Z" fill="white"/>
<path fill-rule="evenodd" clip-rule="evenodd" d="M169.054 35.2H171.661V66.1919H169.054V68.8183H194.608C194.608 65.8213 195.13 65.1848 195.13 61.9896H192.522C191.325 64.5021 193.332 61.8371 190.436 66.1919H177.92V35.2H180.528V32.5738H169.054L169.054 35.2Z" fill="white"/>
<path fill-rule="evenodd" clip-rule="evenodd" d="M374.008 35.2H376.616V66.1919H374.008V68.8183H399.563C399.563 65.8213 400.084 65.1848 400.084 61.9896H397.476C396.973 63.0465 397.139 63.4399 396.706 64.3654C396.363 65.0984 395.882 65.4524 395.39 66.1919H382.874V35.2H385.481V32.5738H374.009L374.008 35.2Z" fill="white"/>
<path fill-rule="evenodd" clip-rule="evenodd" d="M56.9285 35.2H60.0577V66.1919H56.9285V68.8183H69.4453V66.1919H66.8373V35.2H69.4453V32.5738H56.9285V35.2Z" fill="white"/>
<path fill-rule="evenodd" clip-rule="evenodd" d="M99.1714 35.2H102.3V66.1919H99.1714V68.8183H111.688V66.1919H109.08V35.2H111.688V32.5738H99.1714V35.2Z" fill="white"/>
</svg>
