<svg width="401" height="101" viewBox="0 0 401 101" fill="none" xmlns="http://www.w3.org/2000/svg">
<path d="M97.7908 39.2439L97.1031 42.6659H96.9312C96.0716 40.7519 93.6647 38.0839 88.3352 38.0839C79.7392 38.0839 70.9713 44.8119 69.0229 55.4259C67.361 64.7059 71.7736 72.8839 81.9742 72.8839C85.6991 72.8839 89.9971 71.4339 92.2321 68.2439H92.404L91.7736 71.7239H101.287L107.246 39.2439H97.7908ZM94.6962 55.4259C94.0659 58.6159 91.0859 63.7779 85.126 63.7779C79.2808 63.7779 78.0773 58.5579 78.5931 55.5419C79.2808 51.8299 82.5472 47.1899 88.106 47.1899C93.5501 47.2479 95.3839 51.5979 94.6962 55.4259Z" fill="white"/>
<path d="M112.633 39.2439H121.573L120.943 42.6659H121.115C122.261 41.0999 124.496 38.0839 129.997 38.0839L128.221 47.9439C123.693 48.0019 120.427 48.9299 119.567 53.9179L116.301 71.7239H106.673L112.633 39.2439Z" fill="white"/>
<path d="M136.473 26.5419H146.1L141.573 51.0179H141.745L152.862 39.2439H164.152L149.481 53.5119L157.905 71.7239H147.017L140.828 56.0639H140.656L137.848 71.7239H128.163L136.473 26.5419Z" fill="white"/>
<path d="M179.567 38.0839C169.825 38.0839 161.172 46.5519 159.567 55.5999C157.791 65.2279 164.209 72.8259 173.436 72.8259C176.702 72.8259 180.083 71.8399 183.063 69.8679C186.1 68.0119 188.908 65.2279 191.086 61.5739H181.287C179.682 63.2559 177.848 64.5899 174.868 64.5899C171.143 64.5899 168.335 62.3279 168.507 58.4419H192.576C192.862 57.6879 193.034 57.1079 193.264 55.8899C195.097 45.9719 189.367 38.0839 179.567 38.0839ZM169.825 51.8879C170.57 49.9739 173.206 46.3199 178.192 46.3199C183.178 46.3199 184.381 49.9739 184.381 51.8879H169.825Z" fill="white"/>
<path d="M56.3009 26.5419L39.3381 52.2939H39.2235V26.5419H31.0287L1 71.7239H12.6332L29.4814 45.9719H29.6533V71.7239H37.9054L54.7536 45.9719H54.9255V71.7239H64.553V26.5419H56.3009Z" fill="white"/>
<path d="M217.619 39.2439H211.544L213.321 29.6159H204.897L204.209 33.3279C203.464 37.5619 200.828 38.8379 197.332 39.2439H197.275L195.842 46.6099H200.599L196.014 71.7239H205.584L210.169 46.6099H216.301L217.619 39.2439Z" fill="white"/>
<path d="M366.158 59.428C363.006 66.794 355.499 72.826 346.845 72.826C337.103 72.826 331.086 65.054 332.805 55.368C334.582 45.856 343.292 38.084 352.92 38.084C361.401 38.084 367.246 43.826 367.418 51.772H357.676C357.046 49.51 355.613 47.19 351.544 47.19C347.017 46.958 343.292 50.728 342.433 55.426C341.573 60.182 343.98 63.72 348.564 63.72C352.519 63.72 354.925 61.4 356.301 59.37H366.158V59.428ZM286.616 15L267.934 26.542H273.206L256.301 52.294H256.129V26.542H247.877L230.971 52.294H230.799V26.542H221.172V71.724H229.539L246.444 45.972H246.616V71.724H254.868L284.782 26.542H289.539L286.616 15ZM304.84 71.724H295.327L295.957 68.244H295.785C293.55 71.434 289.252 72.884 285.527 72.884C275.327 72.884 270.914 64.764 272.576 55.426C274.467 44.812 283.292 38.084 291.888 38.084C297.16 38.084 299.625 40.694 300.484 42.666H300.656L301.344 39.244H310.857L304.84 71.724ZM288.679 63.836C294.639 63.836 297.619 58.616 298.249 55.484C298.937 51.598 297.103 47.248 291.659 47.248C286.158 47.248 282.834 51.888 282.146 55.6C281.63 58.616 282.834 63.836 288.679 63.836ZM334.811 39.244H328.794L330.57 29.616H322.146L321.458 33.328C320.713 37.562 318.077 38.838 314.582 39.244H314.467L313.092 46.61H317.848L313.264 71.724H322.834L327.418 46.61H333.55L334.811 39.244ZM375.212 26.542H384.782L381.86 42.666H382.031C384.095 39.65 386.845 38.084 391.086 38.084C394.123 38.084 397.619 39.244 399.223 41.738C401.287 44.928 401.057 47.77 399.968 53.57L396.702 71.724H387.132L390.341 54.034C390.627 52.468 391.544 47.19 386.444 47.19C381.057 47.19 380.14 52.062 379.854 53.686L376.587 71.666H367.017L375.212 26.542Z" fill="white"/>
</svg>
