<svg width="100" height="36" viewBox="0 0 100 36" fill="none" xmlns="http://www.w3.org/2000/svg">
<path fill-rule="evenodd" clip-rule="evenodd" d="M40.7987 30.6905L41.6925 32.9868L44.1324 33.5181C46.5991 34.0584 49.1329 34.6437 49.9998 35.7963V30.6379L40.7809 30.6635L40.7987 30.6905Z" fill="url(#paint0_linear_59_148)"/>
<path fill-rule="evenodd" clip-rule="evenodd" d="M59.2011 30.6905L58.3073 32.9868L55.8764 33.5181C53.4007 34.0584 50.8759 34.6436 50 35.7963V30.6635H59.2279L59.2011 30.6905Z" fill="url(#paint1_linear_59_148)"/>
<path fill-rule="evenodd" clip-rule="evenodd" d="M40.8439 5.10592L41.7377 2.8096L44.1776 2.2783C46.6443 1.73799 49.1557 1.15266 50.0226 0V5.13293H40.826L40.8439 5.10592Z" fill="url(#paint2_linear_59_148)"/>
<path fill-rule="evenodd" clip-rule="evenodd" d="M59.2011 5.1158L58.3074 2.81949L55.8764 2.28819C53.4008 1.74788 50.8983 1.16255 50.0225 0.0098877V5.14282H59.2279L59.2011 5.1158Z" fill="url(#paint3_linear_59_148)"/>
<path fill-rule="evenodd" clip-rule="evenodd" d="M1.38529 17.9032L3.23532 7.80843L2.0824 6.50269L0 17.9032H1.38529Z" fill="url(#paint4_linear_59_148)"/>
<path fill-rule="evenodd" clip-rule="evenodd" d="M3.23529 7.80835L1.38525 17.9031H2.77948L4.38821 9.10509L3.23529 7.80835Z" fill="url(#paint5_linear_59_148)"/>
<path fill-rule="evenodd" clip-rule="evenodd" d="M3.23519 7.8086L50.0044 4.44969V3.0719L2.08228 6.50286L3.23519 7.8086Z" fill="url(#paint6_linear_59_148)"/>
<path fill-rule="evenodd" clip-rule="evenodd" d="M50.0047 4.44934L3.23547 7.80826L4.38839 9.105L50.0047 5.83613V4.44934Z" fill="url(#paint7_linear_59_148)"/>
<path fill-rule="evenodd" clip-rule="evenodd" d="M98.6057 17.9031L96.7646 7.80831L97.9176 6.50256L100 17.9031H98.6057Z" fill="url(#paint8_linear_59_148)"/>
<path fill-rule="evenodd" clip-rule="evenodd" d="M96.7647 7.80835L98.6058 17.9031H97.2205L95.6118 9.10509L96.7647 7.80835Z" fill="url(#paint9_linear_59_148)"/>
<path fill-rule="evenodd" clip-rule="evenodd" d="M96.765 7.8086L50.0048 4.44969V3.0719L97.9179 6.50286L96.765 7.8086Z" fill="url(#paint10_linear_59_148)"/>
<path fill-rule="evenodd" clip-rule="evenodd" d="M50.0048 4.44934L96.765 7.80826L95.6121 9.105L50.0048 5.83613V4.44934Z" fill="url(#paint11_linear_59_148)"/>
<path fill-rule="evenodd" clip-rule="evenodd" d="M1.38529 17.9031L3.23532 27.9978L2.0824 29.2946L0 17.9031H1.38529Z" fill="url(#paint12_linear_59_148)"/>
<path fill-rule="evenodd" clip-rule="evenodd" d="M3.23529 27.9977L1.38525 17.903H2.77948L4.38821 26.701L3.23529 27.9977Z" fill="url(#paint13_linear_59_148)"/>
<path fill-rule="evenodd" clip-rule="evenodd" d="M3.23519 27.998L50.0044 31.348V32.7348L2.08228 29.2948L3.23519 27.998Z" fill="url(#paint14_linear_59_148)"/>
<path fill-rule="evenodd" clip-rule="evenodd" d="M50.0047 31.3479L3.23547 27.998L4.38839 26.7013L50.0047 29.9702V31.3479Z" fill="url(#paint15_linear_59_148)"/>
<path fill-rule="evenodd" clip-rule="evenodd" d="M98.6057 17.903L96.7646 27.9977L97.9176 29.2945L100 17.903H98.6057Z" fill="url(#paint16_linear_59_148)"/>
<path fill-rule="evenodd" clip-rule="evenodd" d="M96.7647 27.9977L98.6058 17.903H97.2205L95.6118 26.701L96.7647 27.9977Z" fill="url(#paint17_linear_59_148)"/>
<path fill-rule="evenodd" clip-rule="evenodd" d="M96.765 27.998L50.0048 31.348V32.7348L97.9179 29.2948L96.765 27.998Z" fill="url(#paint18_linear_59_148)"/>
<path fill-rule="evenodd" clip-rule="evenodd" d="M50.0048 31.3479L96.765 27.998L95.6121 26.7013L50.0048 29.9702V31.3479Z" fill="url(#paint19_linear_59_148)"/>
<g style="mix-blend-mode:screen">
<path fill-rule="evenodd" clip-rule="evenodd" d="M2.76171 10.3747L3.07452 7.84425L2.18079 6.66457L3.2622 7.67315L47.949 4.35926C49.4415 4.24219 49.6828 4.06209 49.9599 3.22461L50.1476 4.19716L85.7093 7.01577L49.9599 4.44931L3.19963 7.80823L2.72595 10.3747H2.76171Z" fill="white"/>
</g>
<g style="mix-blend-mode:multiply" opacity="0.75">
<path fill-rule="evenodd" clip-rule="evenodd" d="M50.9698 32.5186C50.4425 32.5186 50.0225 32.4286 50.0225 32.1044V32.7348L97.9446 29.2948L96.7916 27.998C97.1044 28.7095 97.2474 28.9976 96.0677 29.0877L50.9698 32.5186Z" fill="#CA9E67"/>
</g>
<path fill-rule="evenodd" clip-rule="evenodd" d="M50.0044 29.97L95.6117 26.7011L97.2205 17.9031L95.6117 9.10505L50.0044 5.83618L4.38814 9.10505L2.77942 17.9031L4.38814 26.7011L50.0044 29.97Z" fill="url(#paint20_linear_59_148)"/>
<path fill-rule="evenodd" clip-rule="evenodd" d="M50.0045 27.7637L93.7707 24.621L94.9951 17.9031L93.7707 11.1763L50.0045 8.04248L6.2293 11.1763L5.00488 17.9031L6.2293 24.621L50.0045 27.7637Z" fill="url(#paint21_radial_59_148)"/>
<path fill-rule="evenodd" clip-rule="evenodd" d="M50.0044 8.04244V5.83618L4.38818 9.10505L6.22928 11.1762L50.0044 8.04244Z" fill="url(#paint22_linear_59_148)"/>
<path style="mix-blend-mode:screen" opacity="0.5" fill-rule="evenodd" clip-rule="evenodd" d="M5.00482 17.903L6.22924 11.1762L4.38814 9.10498L2.77942 17.903H5.00482Z" fill="url(#paint23_linear_59_148)"/>
<path style="mix-blend-mode:multiply" fill-rule="evenodd" clip-rule="evenodd" d="M6.22924 24.6208L5.00482 17.903H2.77942L4.38814 26.701L6.22924 24.6208Z" fill="url(#paint24_linear_59_148)"/>
<path style="mix-blend-mode:screen" opacity="0.5" fill-rule="evenodd" clip-rule="evenodd" d="M94.9952 17.903L93.7708 11.1762L95.6119 9.10498L97.2206 17.903H94.9952Z" fill="url(#paint25_linear_59_148)"/>
<path style="mix-blend-mode:multiply" fill-rule="evenodd" clip-rule="evenodd" d="M93.7708 24.6208L94.9952 17.903H97.2206L95.6119 26.701L93.7708 24.6208Z" fill="url(#paint26_linear_59_148)"/>
<path fill-rule="evenodd" clip-rule="evenodd" d="M50.0048 8.04244V5.83618L95.6121 9.10505L93.771 11.1762L50.0048 8.04244Z" fill="url(#paint27_linear_59_148)"/>
<path style="mix-blend-mode:multiply" fill-rule="evenodd" clip-rule="evenodd" d="M50.0044 27.7636V29.9699L4.38818 26.701L6.22928 24.6208L50.0044 27.7636Z" fill="url(#paint28_linear_59_148)"/>
<path style="mix-blend-mode:multiply" fill-rule="evenodd" clip-rule="evenodd" d="M50.0048 27.7636V29.9699L95.6121 26.701L93.771 24.6208L50.0048 27.7636Z" fill="url(#paint29_linear_59_148)"/>
<path style="mix-blend-mode:screen" fill-rule="evenodd" clip-rule="evenodd" d="M5.2373 16.6423L5.94335 11.2032L4.65637 9.40221L6.35447 10.9061L49.6381 7.4661L50.0045 5.98926L50.3263 7.4571L90.7857 10.9601L50.0045 8.04243L6.22935 11.1762L5.2373 16.6423Z" fill="url(#paint30_radial_59_148)"/>
<path style="mix-blend-mode:screen" fill-rule="evenodd" clip-rule="evenodd" d="M94.9951 17.9031L93.7707 11.1763L50.0045 8.04248L6.2293 11.1763L5.00488 17.9031H94.9951Z" fill="url(#paint31_radial_59_148)"/>
<g style="mix-blend-mode:screen">
<path style="mix-blend-mode:screen" fill-rule="evenodd" clip-rule="evenodd" d="M5.48756 17.9752L35.7763 17.9031L5.50545 17.8311C5.26414 17.8311 5.14795 17.75 5.19264 17.4889L5.53226 15.1115L5.02283 17.9031L5.53226 20.6947L5.19264 18.3173C5.13008 18.0562 5.24625 17.9752 5.48756 17.9752ZM94.4858 20.6767L94.9952 17.8851L94.4858 15.0935L94.8254 17.4709C94.8254 17.732 94.7539 17.8131 94.5036 17.8131L64.2418 17.9031L94.5036 17.9752C94.7539 17.9752 94.8611 18.0562 94.8254 18.3173L94.4858 20.6767Z" fill="url(#paint32_radial_59_148)"/>
</g>
<path style="mix-blend-mode:screen" fill-rule="evenodd" clip-rule="evenodd" d="M50.0045 17.9031V8.04248L6.2293 11.1763L5.00488 17.9031H94.9951H50.0045Z" fill="url(#paint33_radial_59_148)"/>
<path style="mix-blend-mode:screen" opacity="0.5" fill-rule="evenodd" clip-rule="evenodd" d="M50.0045 17.903V27.7636L93.7707 24.6208L94.9951 17.903H5.00488H50.0045Z" fill="url(#paint34_radial_59_148)"/>
<path style="mix-blend-mode:screen" fill-rule="evenodd" clip-rule="evenodd" d="M44.1323 27.3403L49.7718 28.0157L50.0042 29.7717L50.1919 27.9977L93.7615 24.8549L95.2808 26.3318L93.9938 24.6208L94.9501 18.1371L93.7704 24.6208L50.0042 27.7636L44.1323 27.3403Z" fill="url(#paint35_radial_59_148)"/>
<defs>
<linearGradient id="paint0_linear_59_148" x1="40.7988" y1="33.23" x2="49.9953" y2="33.23" gradientUnits="userSpaceOnUse">
<stop stop-color="#6B4200"/>
<stop offset="1" stop-color="#A87219"/>
</linearGradient>
<linearGradient id="paint1_linear_59_148" x1="49.9956" y1="33.2299" x2="59.2011" y2="33.2299" gradientUnits="userSpaceOnUse">
<stop stop-color="#915D06"/>
<stop offset="1" stop-color="#6B4200"/>
</linearGradient>
<linearGradient id="paint2_linear_59_148" x1="40.7991" y1="2.57625" x2="49.9956" y2="2.57625" gradientUnits="userSpaceOnUse">
<stop stop-color="#D69705"/>
<stop offset="1" stop-color="#FFDD6E"/>
</linearGradient>
<linearGradient id="paint3_linear_59_148" x1="49.9956" y1="2.57635" x2="59.2011" y2="2.57635" gradientUnits="userSpaceOnUse">
<stop stop-color="#E6A300"/>
<stop offset="1" stop-color="#A36808"/>
</linearGradient>
<linearGradient id="paint4_linear_59_148" x1="1.61766" y1="17.9032" x2="1.61766" y2="6.50269" gradientUnits="userSpaceOnUse">
<stop stop-color="#FFD97A"/>
<stop offset="1" stop-color="#EB9E21"/>
</linearGradient>
<linearGradient id="paint5_linear_59_148" x1="2.88673" y1="17.9031" x2="2.88673" y2="7.80835" gradientUnits="userSpaceOnUse">
<stop stop-color="#E8B048"/>
<stop offset="1" stop-color="#8F6B09"/>
</linearGradient>
<linearGradient id="paint6_linear_59_148" x1="2.08228" y1="5.44025" x2="49.9954" y2="5.44025" gradientUnits="userSpaceOnUse">
<stop stop-color="#F5D36C"/>
<stop offset="1" stop-color="#FFF5B0"/>
</linearGradient>
<linearGradient id="paint7_linear_59_148" x1="172.54" y1="91.2774" x2="2619.5" y2="91.2774" gradientUnits="userSpaceOnUse">
<stop stop-color="#6B4200"/>
<stop offset="1" stop-color="#A87219"/>
</linearGradient>
<linearGradient id="paint8_linear_59_148" x1="452.909" y1="360.033" x2="452.909" y2="215.702" gradientUnits="userSpaceOnUse">
<stop stop-color="#FFD97A"/>
<stop offset="1" stop-color="#EB9E21"/>
</linearGradient>
<linearGradient id="paint9_linear_59_148" x1="420.941" y1="320.847" x2="420.941" y2="207.685" gradientUnits="userSpaceOnUse">
<stop stop-color="#E8B048"/>
<stop offset="1" stop-color="#8F6B09"/>
</linearGradient>
<linearGradient id="paint10_linear_59_148" x1="49.9958" y1="5.44025" x2="97.9179" y2="5.44025" gradientUnits="userSpaceOnUse">
<stop stop-color="#FFDD6E"/>
<stop offset="1" stop-color="#D69705"/>
</linearGradient>
<linearGradient id="paint11_linear_59_148" x1="49.9958" y1="6.77267" x2="96.765" y2="6.77267" gradientUnits="userSpaceOnUse">
<stop stop-color="#BF8800"/>
<stop offset="1" stop-color="#A36808"/>
</linearGradient>
<linearGradient id="paint12_linear_59_148" x1="1.61766" y1="29.2946" x2="1.61766" y2="17.9031" gradientUnits="userSpaceOnUse">
<stop stop-color="#E8B048"/>
<stop offset="1" stop-color="#C27C0C"/>
</linearGradient>
<linearGradient id="paint13_linear_59_148" x1="2.88673" y1="27.9977" x2="2.88673" y2="17.903" gradientUnits="userSpaceOnUse">
<stop stop-color="#FFD97A"/>
<stop offset="1" stop-color="#FCBC53"/>
</linearGradient>
<linearGradient id="paint14_linear_59_148" x1="2.08228" y1="30.3664" x2="49.9954" y2="30.3664" gradientUnits="userSpaceOnUse">
<stop stop-color="#A36808"/>
<stop offset="1" stop-color="#BF8800"/>
</linearGradient>
<linearGradient id="paint15_linear_59_148" x1="172.54" y1="228.18" x2="2619.5" y2="228.18" gradientUnits="userSpaceOnUse">
<stop stop-color="#D69705"/>
<stop offset="1" stop-color="#FFDD6E"/>
</linearGradient>
<linearGradient id="paint16_linear_59_148" x1="452.909" y1="515.256" x2="452.909" y2="371.154" gradientUnits="userSpaceOnUse">
<stop stop-color="#E8B048"/>
<stop offset="1" stop-color="#C27C0C"/>
</linearGradient>
<linearGradient id="paint17_linear_59_148" x1="420.941" y1="444.104" x2="420.941" y2="330.942" gradientUnits="userSpaceOnUse">
<stop stop-color="#FFD97A"/>
<stop offset="1" stop-color="#FCBC53"/>
</linearGradient>
<linearGradient id="paint18_linear_59_148" x1="49.9958" y1="30.3664" x2="97.9179" y2="30.3664" gradientUnits="userSpaceOnUse">
<stop stop-color="#A87219"/>
<stop offset="1" stop-color="#6B4200"/>
</linearGradient>
<linearGradient id="paint19_linear_59_148" x1="49.9958" y1="29.0246" x2="96.765" y2="29.0246" gradientUnits="userSpaceOnUse">
<stop stop-color="#FFF5B0"/>
<stop offset="1" stop-color="#F5D36C"/>
</linearGradient>
<linearGradient id="paint20_linear_59_148" x1="49.9955" y1="29.97" x2="49.9955" y2="5.82718" gradientUnits="userSpaceOnUse">
<stop stop-color="#FAB925"/>
<stop offset="1" stop-color="#FAB925"/>
</linearGradient>
<radialGradient id="paint21_radial_59_148" cx="0" cy="0" r="1" gradientUnits="userSpaceOnUse" gradientTransform="translate(5039.06 834.955) scale(7027.34 1540.03)">
<stop stop-color="#FAB925"/>
<stop offset="1" stop-color="#FAB925"/>
</radialGradient>
<linearGradient id="paint22_linear_59_148" x1="228.364" y1="115.681" x2="2556.16" y2="115.681" gradientUnits="userSpaceOnUse">
<stop stop-color="#FAB925"/>
<stop offset="1" stop-color="#FAB925"/>
</linearGradient>
<linearGradient id="paint23_linear_59_148" x1="4.50433" y1="17.903" x2="4.50433" y2="9.10498" gradientUnits="userSpaceOnUse">
<stop stop-color="#FAB925"/>
<stop offset="0.93" stop-color="#FAB925"/>
</linearGradient>
<linearGradient id="paint24_linear_59_148" x1="4.50433" y1="26.701" x2="4.50433" y2="17.903" gradientUnits="userSpaceOnUse">
<stop stop-color="#FAB925"/>
<stop offset="1" stop-color="white"/>
</linearGradient>
<linearGradient id="paint25_linear_59_148" x1="462.384" y1="281.932" x2="462.384" y2="195.975" gradientUnits="userSpaceOnUse">
<stop stop-color="#FAB925"/>
<stop offset="0.93" stop-color="#FAB925"/>
</linearGradient>
<linearGradient id="paint26_linear_59_148" x1="462.384" y1="376.687" x2="462.384" y2="290.73" gradientUnits="userSpaceOnUse">
<stop stop-color="#FAB925"/>
<stop offset="1" stop-color="white"/>
</linearGradient>
<linearGradient id="paint27_linear_59_148" x1="2601.28" y1="115.681" x2="4929.08" y2="115.681" gradientUnits="userSpaceOnUse">
<stop stop-color="#FAB925"/>
<stop offset="1" stop-color="#FAB925"/>
</linearGradient>
<linearGradient id="paint28_linear_59_148" x1="228.364" y1="246.286" x2="2556.16" y2="246.286" gradientUnits="userSpaceOnUse">
<stop stop-color="#FAB925"/>
<stop offset="1" stop-color="#FAB925"/>
</linearGradient>
<linearGradient id="paint29_linear_59_148" x1="2601.28" y1="246.286" x2="4929.08" y2="246.286" gradientUnits="userSpaceOnUse">
<stop stop-color="#FAB925"/>
<stop offset="1" stop-color="#FAB925"/>
</linearGradient>
<radialGradient id="paint30_radial_59_148" cx="0" cy="0" r="1" gradientUnits="userSpaceOnUse" gradientTransform="translate(16.3643 9.98754) scale(66.4135 66.9172)">
<stop stop-color="#FAB925"/>
<stop offset="1" stop-color="#000817"/>
</radialGradient>
<radialGradient id="paint31_radial_59_148" cx="0" cy="0" r="1" gradientUnits="userSpaceOnUse" gradientTransform="translate(49.9955 2.96358) scale(78.2734 78.8671)">
<stop stop-color="#000817"/>
<stop offset="1" stop-color="#FAB925"/>
</radialGradient>
<radialGradient id="paint32_radial_59_148" cx="0" cy="0" r="1" gradientUnits="userSpaceOnUse" gradientTransform="translate(49.9956 17.9031) scale(45.089 45.431)">
<stop offset="0.59" stop-color="#000817"/>
<stop offset="1" stop-color="#FAB925"/>
</radialGradient>
<radialGradient id="paint33_radial_59_148" cx="0" cy="0" r="1" gradientUnits="userSpaceOnUse" gradientTransform="translate(4974.27 684.482) scale(5490.3 601.597)">
<stop stop-color="#FAB925"/>
<stop offset="1" stop-color="#000817"/>
</radialGradient>
<radialGradient id="paint34_radial_59_148" cx="0" cy="0" r="1" gradientUnits="userSpaceOnUse" gradientTransform="translate(-25293.9 -1019.44) rotate(180) scale(5490.3 601.597)">
<stop stop-color="#FAB925"/>
<stop offset="1" stop-color="#000817"/>
</radialGradient>
<radialGradient id="paint35_radial_59_148" cx="0" cy="0" r="1" gradientUnits="userSpaceOnUse" gradientTransform="translate(4860.79 547.397) scale(2131.36 484.816)">
<stop stop-color="#FAB925"/>
<stop offset="1" stop-color="#000817"/>
</radialGradient>
</defs>
</svg>
