<svg width="496" height="23" viewBox="0 0 496 23" fill="none" xmlns="http://www.w3.org/2000/svg">
<path fill-rule="evenodd" clip-rule="evenodd" d="M496 0H0L-0.000244141 10.1984C4.7026 7.35079 6.35789 9.69947 8.50462 8.24121L9.87996 7.31567C11.1423 6.45166 10.7459 5.90738 12.0898 4.87841C13.6242 4.91695 13.9888 5.51864 15.2691 5.8756C17.2468 6.42659 16.6502 5.89933 18.5996 5.91894C20.3133 5.93584 21.3387 7.30551 22.7559 8.28039C24.1212 9.22011 24.8906 10.8076 26.6663 10.9286C27.9399 11.0151 29.0368 10.4688 30.022 10.1382C31.1421 9.76296 32.2405 9.59602 33.4119 10.2734C34.454 10.8765 34.7563 12.0386 35.3397 13.0358C39.366 11.8053 37.1193 8.78276 43.0869 8.76586C47.6276 8.75302 48.8823 11.9731 52.3439 9.79077C54.3833 8.50422 54.7735 9.42154 57.0347 9.50402L60.6251 9.64062C61.5858 9.81369 60.9292 9.84411 61.6815 9.51757L63.5208 8.69079C64.7289 8.50555 64.1822 9.35739 65.0189 7.63952C65.9317 5.76413 65.7457 4.6277 67.2698 3.45947C69.5844 4.16663 66.958 4.8717 71.572 5.63024C73.6575 5.97368 73.6363 8.12082 76.2999 7.0736C79.4005 5.85467 79.9219 6.57746 81.5044 5.91357C83.0892 5.24832 84.1698 3.72842 86.5063 4.85339C88.2677 5.70184 88.8404 7.13041 90.0167 7.93627C90.7867 8.46292 90.5268 8.18505 91.164 8.39733L94.0461 9.71032C99.0144 11.6202 100.92 10.3282 105.4 9.13427C105.819 9.8509 106.221 10.5459 106.64 11.2626C108.816 10.5973 106.939 9.94615 109.12 11.6167C110.708 10.0374 111.588 10.6209 113.702 11.3423C116.425 12.2712 115.882 11.6167 119.04 11.6167C119.623 10.3565 120.294 9.81103 121.289 8.85778C122.915 7.29811 123.099 8.20672 124.31 9.13427C126.771 8.47782 125.564 8.1242 128.055 9.0957C130.13 9.90562 130.889 9.21204 132.426 9.26342C133.644 9.30399 134.35 10.8542 135.414 11.3497C136.279 11.7533 138.24 11.1699 139.304 11.5215C141.11 12.1178 143.512 16.1828 145.339 16.1254C146.421 16.0909 147.953 14.7638 149.029 14.9058L153.14 16.2281L154.332 15.1033C154.883 16.0241 154.998 16.0794 155.753 16.7845C156.701 17.6688 156.529 17.6168 157.17 18.7107C158.388 18.3855 158.428 18.3206 159.03 17.2916C160.039 18.0644 161.173 17.7358 162.132 18.3538C163.041 18.9399 165.228 23.1429 170.503 22.9962C172.461 22.9421 172.551 22.3087 173.692 22.1119C176.036 21.707 178.807 22.1816 181.031 22.2709C184.806 22.4237 182.782 21.6881 188.817 22.2512C192.777 22.6203 195.896 20.2934 200.143 20.9951C201.882 21.2824 205.5 21.6603 206.829 20.9086C207.821 20.3474 208.311 19.7586 208.834 18.5802C210.215 15.4676 209.373 17.8561 211.11 16.9374C212.646 15.2046 210.283 12.2665 216.996 12.3219C222.802 12.3685 226.828 10.168 230.62 11.3295C232.637 11.9481 232.595 10.385 234.134 9.93066C235.944 9.39725 236.962 10.4019 238.655 10.1741C241.023 9.85564 239.833 9.22547 242.991 9.89477C244.044 10.1179 246.183 10.5039 247.503 9.98474C249.485 9.20524 249.334 7.65848 252.823 10.0017C253.534 10.4783 253.596 10.7994 254.524 10.8541C256.136 10.9481 254.806 10.3234 256.529 10.7223C258.699 11.2239 259.823 12.1725 262.191 9.41076C263.073 8.38247 263.376 6.6761 264.995 6.69164C266.275 6.70449 267.592 7.39613 269.521 6.80187C274.496 5.26992 273.531 1.13242 280.341 5.11645C286.429 8.67726 288.224 6.45102 290.072 6.47265C290.375 6.47603 291.82 6.80856 292.139 6.86535C293.914 7.17904 295.347 6.94244 296.891 7.46301C299.414 8.31349 300.311 11.0191 304.107 10.938C307.013 10.8765 309.761 8.85635 312.49 9.8319C315.407 10.8757 314.652 9.66435 316.077 9.99291C317.098 10.2282 317.377 11.3227 319.734 11.8291C331.325 14.3197 326.323 14.8584 332.046 17.9589C333.004 18.4767 332.153 18.0096 332.845 18.4633C334.634 19.6362 334.866 18.111 336.722 17.7548C337.199 17.6628 337.067 17.7344 337.403 17.7229L340.114 17.9338C341.405 18.4706 341.581 19.4868 342.959 19.1481C344.261 18.8276 342.629 18.4943 344.51 18.923C347.325 19.5639 351.18 20.2129 354.259 19.6937L357.581 18.9385C358.505 18.8844 358.288 19.1291 358.868 18.2516C359.081 17.9277 359.436 16.938 359.6 16.5824C361.471 17.61 363.175 17.2591 365.049 15.7069C365.151 15.6231 365.555 15.2675 365.584 15.2485C367.261 14.1378 368.815 15.1303 370.14 15.1641C370.33 14.2311 370.421 14.1216 370.76 13.3907C372.345 13.8126 373.214 14.2662 374.423 12.9716C378.476 8.6326 377.205 12.3361 379.868 14.3535C381.155 15.3284 382.805 13.8188 383.519 12.7371C386.261 8.58401 385.789 12.6403 392.144 10.9015C398.708 9.10587 398.633 11.4221 401.665 11.4376C406.741 11.4647 402.975 8.37707 410.923 10.3552C415.156 11.4078 415.172 8.45751 417.361 8.97875C419.609 9.51352 421.828 11.4221 422.934 7.82275C423.658 5.4633 423.415 5.19079 426.059 4.64318C427.93 4.25512 429.127 4.67975 430.37 5.8446C433.157 8.45757 435.05 2.93137 439.062 5.11437C440.904 6.11697 440.885 6.91004 441.75 8.78002C444.761 8.70295 443.987 8.28922 446.053 9.88134C447.75 11.1888 449.751 10.9413 451.595 11.3477C452.581 11.5647 453.375 12.3665 454.945 12.8357C459.541 14.2088 458.652 12.2719 462.511 12.3165C464.547 12.3402 465.013 12.19 466.775 11.875C470.083 11.2834 469.197 10.4438 469.96 10.1984C470.986 9.86709 471.201 11.7405 474.92 9.48925C477.107 13.2265 479.675 9.69195 481.416 9.57702C482.275 9.52091 482.718 9.98546 484.393 9.70422C492.204 8.39469 490.688 10.5526 496 10.5526L496 0Z" fill="rgb(12 13 19 / 70%)"/>
</svg>
