<svg width="16" height="16" viewBox="0 0 16 16" fill="none" xmlns="http://www.w3.org/2000/svg">
<path d="M8.15035 0.14576L9.84654 1.37827L12.7842 1.36232L12.8411 1.53383L13.7216 4.1943L15.677 5.61528L14.9411 7.87887L15.7648 10.3668L13.6209 11.9424L12.7453 14.6357H9.95623L8.12143 15.9839L6.24374 14.6357H3.26019L2.35276 11.8416L0.416243 10.4516L1.15216 8.14711L0.328491 5.61428L2.45148 4.07264L3.29808 1.41417L6.13106 1.39821L8.00177 0.0390625L8.14835 0.14576H8.15035ZM10.5286 1.87387L13.0295 3.69072L12.4242 1.8629L10.5286 1.87387ZM14.6819 8.6806L13.8861 11.1297L15.1784 10.1804L14.6819 8.6806ZM9.11462 14.6367H7.10231L8.12043 15.3677L9.11462 14.6367ZM2.09449 11.0399L1.41841 8.95981L1.00458 10.2571L2.09449 11.0399ZM3.13455 3.57804L5.44102 1.90179L3.66504 1.91176L3.13455 3.57804ZM13.9918 5.007L14.6779 7.07913L15.0917 5.80574L13.9918 5.007ZM12.9328 12.4499L10.6373 14.1371H12.3844L12.9328 12.4499ZM5.54871 14.1371L3.03782 12.3343L3.62316 14.1371H5.54871ZM1.41342 7.33441L2.1972 4.87637L0.916826 5.80673L1.41342 7.33441ZM6.98863 1.39522L9.00393 1.38425L8.00376 0.657312L6.98863 1.39522ZM13.8013 6.02312L13.2988 4.50542L11.5477 3.23302L9.686 1.87985L6.29659 1.8988L2.87827 4.38276L1.67767 8.14711L2.77756 11.5315L6.40628 14.1371H9.79569L13.1981 11.6362L14.4186 7.88086L13.8033 6.02212L13.8013 6.02312Z" fill="#c6864b"/>
</svg>
