<svg width="496" height="23" viewBox="0 0 496 23" fill="none" xmlns="http://www.w3.org/2000/svg">
<path fill-rule="evenodd" clip-rule="evenodd" d="M496 0.503906H0L-0.000244141 10.7023C4.7026 7.8547 6.35789 10.2034 8.50462 8.74511L9.87996 7.81957C11.1423 6.95557 10.7459 6.41128 12.0898 5.38232C13.6242 5.42085 13.9888 6.02255 15.2691 6.37951C17.2468 6.9305 16.6502 6.40324 18.5996 6.42285C20.3133 6.43975 21.3387 7.80942 22.7559 8.7843C24.1212 9.72402 24.8906 11.3115 26.6663 11.4325C27.9399 11.519 29.0368 10.9727 30.022 10.6421C31.1421 10.2669 32.2405 10.0999 33.4119 10.7773C34.454 11.3804 34.7563 12.5425 35.3397 13.5397C39.366 12.3092 37.1193 9.28667 43.0869 9.26977C47.6276 9.25692 48.8823 12.477 52.3439 10.2947C54.3833 9.00813 54.7735 9.92545 57.0347 10.0079L60.6251 10.1445C61.5858 10.3176 60.9292 10.348 61.6815 10.0215L63.5208 9.1947C64.7289 9.00946 64.1822 9.8613 65.0189 8.14343C65.9317 6.26803 65.7457 5.13161 67.2698 3.96337C69.5844 4.67053 66.958 5.37561 71.572 6.13415C73.6575 6.47759 73.6363 8.62473 76.2999 7.57751C79.4005 6.35857 79.9219 7.08137 81.5044 6.41747C83.0892 5.75223 84.1698 4.23233 86.5063 5.35729C88.2677 6.20575 88.8404 7.63432 90.0167 8.44018C90.7867 8.96683 90.5268 8.68896 91.164 8.90124L94.0461 10.2142C99.0144 12.1241 100.92 10.8321 105.4 9.63818C105.819 10.3548 106.221 11.0498 106.64 11.7665C108.816 11.1012 106.939 10.4501 109.12 12.1206C110.708 10.5413 111.588 11.1248 113.702 11.8462C116.425 12.7751 115.882 12.1206 119.04 12.1206C119.623 10.8604 120.294 10.3149 121.289 9.36169C122.915 7.80202 123.099 8.71062 124.31 9.63818C126.771 8.98172 125.564 8.6281 128.055 9.5996C130.13 10.4095 130.889 9.71595 132.426 9.76733C133.644 9.80789 134.35 11.3581 135.414 11.8536C136.279 12.2572 138.24 11.6738 139.304 12.0254C141.11 12.6217 143.512 16.6867 145.339 16.6293C146.421 16.5948 147.953 15.2677 149.029 15.4097L153.14 16.732L154.332 15.6072C154.883 16.528 154.998 16.5833 155.753 17.2884C156.701 18.1727 156.529 18.1207 157.17 19.2146C158.388 18.8894 158.428 18.8245 159.03 17.7955C160.039 18.5683 161.173 18.2397 162.132 18.8577C163.041 19.4438 165.228 23.6468 170.503 23.5001C172.461 23.446 172.551 22.8126 173.692 22.6158C176.036 22.2109 178.807 22.6855 181.031 22.7748C184.806 22.9276 182.782 22.192 188.817 22.7551C192.777 23.1243 195.896 20.7973 200.143 21.499C201.882 21.7863 205.5 22.1642 206.829 21.4125C207.821 20.8513 208.311 20.2625 208.834 19.0841C210.215 15.9715 209.373 18.36 211.11 17.4413C212.646 15.7085 210.283 12.7704 216.996 12.8258C222.802 12.8724 226.828 10.6719 230.62 11.8334C232.637 12.452 232.595 10.8889 234.134 10.4346C235.944 9.90115 236.962 10.9058 238.655 10.678C241.023 10.3595 239.833 9.72938 242.991 10.3987C244.044 10.6218 246.183 11.0079 247.503 10.4886C249.485 9.70914 249.334 8.16238 252.823 10.5056C253.534 10.9822 253.596 11.3033 254.524 11.358C256.136 11.452 254.806 10.8273 256.529 11.2262C258.699 11.7278 259.823 12.6764 262.191 9.91467C263.073 8.88638 263.376 7.18 264.995 7.19555C266.275 7.2084 267.592 7.90004 269.521 7.30578C274.496 5.77383 273.531 1.63633 280.341 5.62036C286.429 9.18117 288.224 6.95492 290.072 6.97656C290.375 6.97994 291.82 7.31247 292.139 7.36926C293.914 7.68295 295.347 7.44635 296.891 7.96691C299.414 8.8174 300.311 11.523 304.107 11.4419C307.013 11.3804 309.761 9.36025 312.49 10.3358C315.407 11.3796 314.652 10.1683 316.077 10.4968C317.098 10.7321 317.377 11.8266 319.734 12.333C331.325 14.8236 326.323 15.3623 332.046 18.4628C333.004 18.9806 332.153 18.5135 332.845 18.9672C334.634 20.1401 334.866 18.6149 336.722 18.2587C337.199 18.1667 337.067 18.2383 337.403 18.2268L340.114 18.4377C341.405 18.9745 341.581 19.9907 342.959 19.652C344.261 19.3315 342.629 18.9983 344.51 19.4269C347.325 20.0678 351.18 20.7168 354.259 20.1976L357.581 19.4424C358.505 19.3883 358.288 19.633 358.868 18.7555C359.081 18.4317 359.436 17.4419 359.6 17.0863C361.471 18.1139 363.175 17.763 365.049 16.2108C365.151 16.127 365.555 15.7714 365.584 15.7524C367.261 14.6417 368.815 15.6342 370.14 15.668C370.33 14.735 370.421 14.6255 370.76 13.8946C372.345 14.3165 373.214 14.7701 374.423 13.4755C378.476 9.1365 377.205 12.8401 379.868 14.8574C381.155 15.8323 382.805 14.3227 383.519 13.241C386.261 9.08792 385.789 13.1442 392.144 11.4054C398.708 9.60977 398.633 11.926 401.665 11.9415C406.741 11.9686 402.975 8.88097 410.923 10.8591C415.156 11.9118 415.172 8.96142 417.361 9.48266C419.609 10.0174 421.828 11.926 422.934 8.32665C423.658 5.9672 423.415 5.6947 426.059 5.14709C427.93 4.75903 429.127 5.18365 430.37 6.34851C433.157 8.96148 435.05 3.43528 439.062 5.61828C440.904 6.62088 440.885 7.41395 441.75 9.28393C444.761 9.20686 443.987 8.79313 446.053 10.3852C447.75 11.6927 449.751 11.4452 451.595 11.8516C452.581 12.0686 453.375 12.8704 454.945 13.3396C459.541 14.7127 458.652 12.7758 462.511 12.8204C464.547 12.8441 465.013 12.6939 466.775 12.3789C470.083 11.7873 469.197 10.9477 469.96 10.7023C470.986 10.371 471.201 12.2444 474.92 9.99316C477.107 13.7304 479.675 10.1959 481.416 10.0809C482.275 10.0248 482.718 10.4894 484.393 10.2081C492.204 8.89859 490.688 11.0565 496 11.0565L496 0.503906Z" fill="#0D0D0D"/>
</svg>
